<svg xmlns="http://www.w3.org/2000/svg" width="270" height="27"><defs><clipPath id="a"><path data-name="Rectangle 5" transform="translate(0 .104)" fill="currentColor" d="M0 0h270v27H0z"/></clipPath></defs><g data-name="Group 5" transform="translate(0 -.104)" clip-path="url(#a)"><path data-name="Path 5" d="M141.794 13.304h-11.888v3.006h7.874c-.425 5.087-4.053 6.709-8.378 7.017-5.443.386-9.767-4.279-9.882-9.56a9.836 9.836 0 0 1 9.88-9.946 10.058 10.058 0 0 1 8.3 4.547l2.932-1.541C139.209 3.242 134.5.581 129.4.461a13.338 13.338 0 0 0-13.742 13.3A13.35 13.35 0 0 0 129.4 26.64c11.08-.191 13.127-9.29 12.392-13.336m64.663 2.507 3.319-8.638 3.326 8.638Zm2.086-14.535-10.307 24.595h4.091l2.741-6.979h9.3l2.741 6.979h4.093L210.9 1.276ZM104.155 24.328a1.914 1.914 0 0 1-2.006-1.965c0-.926.578-1.463 1.659-2.2a.758.758 0 0 0 .155-.118c.27.308 2.355 2.777 2.662 3.122a3.793 3.793 0 0 1-2.471 1.157m.656-9.29a1.067 1.067 0 0 1 1.2 1.078 1.794 1.794 0 0 1-1.042 1.5s-.195.118-.347.195c-.195-.229-.617-.692-.617-.692a1.394 1.394 0 0 1-.386-.965 1.115 1.115 0 0 1 1.195-1.118m5.907 6.514.116-.19-1.275-1.353s-1.2 1.5-1.466 1.851c-.347-.385-1.97-2.312-2.317-2.7 1.468-.925 2.124-1.89 2.124-3.083 0-1.7-1.235-2.815-3.129-2.815a2.879 2.879 0 0 0-3.163 2.815 3.033 3.033 0 0 0 .887 2.2s.155.154.309.309c-1.816 1.077-2.7 2.314-2.7 3.777a3.661 3.661 0 0 0 3.975 3.7 5.56 5.56 0 0 0 3.744-1.5c.272.308 1.121 1.311 1.121 1.311h2.548s-1.97-2.311-2.24-2.621a7.9 7.9 0 0 0 1.468-1.7m37.175-5.742 3.32-8.638 3.323 8.638Zm2.082-14.529L139.67 25.871h4.094l2.741-6.979h9.3l2.743 6.979h4.093L152.332 1.276Zm20.152 21.665h-2.279v-8.366h2.394c2.587 0 6.485.077 6.485 4.047.039 3.664-3.05 4.358-6.6 4.32m-2.279-18.66h.617c2.975-.079 6.217-.231 6.217 3.469 0 3.778-3.05 3.739-6.253 3.818h-.581Zm7.992 8.249a5.3 5.3 0 0 0 2.7-4.51c.079-5.7-3.823-6.593-7.837-6.7h-6.871v24.588h7.953c5.056 0 8.723-1.735 9-6.631a6.759 6.759 0 0 0-4.942-6.747m66.353 7.094L224.985 1.276h-2.391v24.595h3.628V7.861l16.868 18h2.7V1.276h-3.59Zm-53.465 3.317h-2.279v-8.367h2.394c2.587 0 6.485.077 6.485 4.047.039 3.664-3.011 4.358-6.6 4.32m-2.276-18.66h.617c2.975-.079 6.217-.231 6.217 3.469 0 3.778-3.05 3.739-6.253 3.818h-.581Zm7.992 8.249a5.3 5.3 0 0 0 2.7-4.51c.079-5.7-3.823-6.593-7.837-6.7h-6.871v24.588h7.957c5.056 0 8.723-1.735 9-6.631a6.715 6.715 0 0 0-4.942-6.747M53.545 1.276h-3.706L49.8 25.871h10.695v-3.01h-6.95Zm201.669 14.535 3.32-8.638 3.32 8.638Zm4.518-14.535H257.3l-10.311 24.595h4.094l2.741-6.979h9.3l2.777 6.979H270ZM42.081 20.397a10.089 10.089 0 0 1-13.975 0 9.243 9.243 0 0 1-2.9-6.748 9.411 9.411 0 0 1 2.9-6.822 10.179 10.179 0 0 1 13.975 0 9.291 9.291 0 0 1 2.895 6.822 9.111 9.111 0 0 1-2.895 6.748M44.82 4.475a14.374 14.374 0 0 0-19.34 0 12.448 12.448 0 0 0 0 18.311 14.264 14.264 0 0 0 19.34 0 12.34 12.34 0 0 0 3.98-9.137 12.22 12.22 0 0 0-3.98-9.174M71.535.504a11.6 11.6 0 0 0-4.826 1.08c-5.6 2.392-8.493 7.131-7.953 13.03.463 5.166 3.088 8.674 7.953 10.831a11.372 11.372 0 0 0 4.791 1.159 11.138 11.138 0 0 0 5.017-.7 9.444 9.444 0 0 0 3.438-1.774v-3.387a21.919 21.919 0 0 1-3.438 1.89 9.69 9.69 0 0 1-5.017.692 9.2 9.2 0 0 1-4.786-1.81 8.261 8.261 0 0 1-2.857-3 7.7 7.7 0 0 1-1.082-3.78c-.309-3.778.772-6.67 3.939-8.944A8.574 8.574 0 0 1 71.5 3.976a10.118 10.118 0 0 1 5.017.731 16.26 16.26 0 0 1 3.438 1.81V3.281a9.351 9.351 0 0 0-3.442-1.928 11.868 11.868 0 0 0-4.978-.849m9.535 25.367h12.739v-2.968h-8.878v-8.442h8.648v-2.97h-8.648V4.282h8.879V1.276H81.07ZM16.331 14.227c-.191 5.014-3.783 8.6-8.648 8.6H3.939V4.436l3.783.039c5.173.079 8.84 4.317 8.609 9.751M7.722 1.314H0v24.555h7.722c8.107 0 12.778-5.783 12.584-12.6A12.211 12.211 0 0 0 7.722 1.314" fill="currentColor" fill-rule="evenodd"/></g></svg>