<?xml version="1.0" encoding="utf-8"?>
<!-- Generator: Adobe Illustrator 17.0.2, SVG Export Plug-In . SVG Version: 6.00 Build 0)  -->
<!DOCTYPE svg PUBLIC "-//W3C//DTD SVG 1.1//EN" "http://www.w3.org/Graphics/SVG/1.1/DTD/svg11.dtd">
<svg version="1.1" id="Calque_1" xmlns="http://www.w3.org/2000/svg" xmlns:xlink="http://www.w3.org/1999/xlink" x="0px" y="0px"
	 width="1000px" height="100px" viewBox="0 0 1000 100" enable-background="new 0 0 1000 100" xml:space="preserve">
<g>
	<g transform="matrix(1,0,0,1,1440,1200)">
		
			<linearGradient id="SVGID_1_" gradientUnits="userSpaceOnUse" x1="-2909" y1="-348.9111" x2="-2909" y2="-89.2035" gradientTransform="matrix(1 0 0 -1 1519 -1345.5)">
			<stop  offset="0" style="stop-color:#E4201B"/>
			<stop  offset="0.5" style="stop-color:#E94E13"/>
			<stop  offset="1" style="stop-color:#EF9704"/>
		</linearGradient>
		
			<path fill="#010202" fill-opacity="0" stroke="url(#SVGID_1_)" stroke-width="5" stroke-linecap="round" stroke-linejoin="round" d="
			M-1405.905-1150c0-20.264,4.713-28.629,15.906-28.629c11.192,0,15.905,8.365,15.905,28.629c0,20.264-4.713,28.629-15.905,28.629
			C-1401.192-1121.371-1405.905-1129.736-1405.905-1150z M-1420.279-1150c0,28.983,8.954,41,30.279,41
			c21.325,0,30.278-12.017,30.278-41s-8.954-41-30.278-41C-1411.324-1191-1420.279-1178.983-1420.279-1150z"/>
	</g>
	<g transform="matrix(1,0,0,1,1440,1200)">
		<path fill="#010202" fill-opacity="0" stroke="#FFFFFF" stroke-width="1.8" d="M-1405.905-1150
			c0-20.264,4.713-28.629,15.906-28.629c11.192,0,15.905,8.365,15.905,28.629c0,20.264-4.713,28.629-15.905,28.629
			C-1401.192-1121.371-1405.905-1129.736-1405.905-1150z M-1420.279-1150c0,28.983,8.954,41,30.279,41
			c21.325,0,30.278-12.017,30.278-41s-8.954-41-30.278-41C-1411.324-1191-1420.279-1178.983-1420.279-1150z"/>
	</g>
</g>
<g>
	<g transform="matrix(1,0,0,1,1440,1200)">
		
			<linearGradient id="SVGID_2_" gradientUnits="userSpaceOnUse" x1="-2809" y1="-350.52" x2="-2809" y2="-88.0888" gradientTransform="matrix(1 0 0 -1 1519 -1345.5)">
			<stop  offset="0" style="stop-color:#E4201B"/>
			<stop  offset="0.5" style="stop-color:#E94E13"/>
			<stop  offset="1" style="stop-color:#EF9704"/>
		</linearGradient>
		
			<path fill="#010202" fill-opacity="0" stroke="url(#SVGID_2_)" stroke-width="5" stroke-linecap="round" stroke-linejoin="round" d="
			M-1287.202-1110h15.238v-80h-12.738l-23.334,10.357v12.262l20.833-9.167V-1110z"/>
	</g>
	<g transform="matrix(1,0,0,1,1440,1200)">
		<path fill="#010202" fill-opacity="0" stroke="#FFFFFF" stroke-width="1.8" d="M-1287.202-1110h15.238v-80h-12.738l-23.334,10.357
			v12.262l20.833-9.167V-1110z"/>
	</g>
</g>
<g>
	<g transform="matrix(1,0,0,1,1440,1200)">
		
			<linearGradient id="SVGID_3_" gradientUnits="userSpaceOnUse" x1="-2709" y1="-348.6248" x2="-2709" y2="-90.6137" gradientTransform="matrix(1 0 0 -1 1519 -1345.5)">
			<stop  offset="0" style="stop-color:#E4201B"/>
			<stop  offset="0.5" style="stop-color:#E94E13"/>
			<stop  offset="1" style="stop-color:#EF9704"/>
		</linearGradient>
		
			<path fill="#010202" fill-opacity="0" stroke="url(#SVGID_3_)" stroke-width="5" stroke-linecap="round" stroke-linejoin="round" d="
			M-1216.667-1110h53.333v-11.93h-33.801l21.989-21.17c7.719-7.485,11.579-15.087,11.579-23.508
			c0-16.374-8.421-23.392-27.953-23.392c-8.07,0-15.789,1.053-22.924,3.392v12.398c7.018-2.339,13.684-3.509,20.585-3.509
			c10.526,0,14.97,3.742,14.97,12.982c0,5.38-3.158,10.761-9.356,16.726l-28.421,27.251V-1110z"/>
	</g>
	<g transform="matrix(1,0,0,1,1440,1200)">
		<path fill="#010202" fill-opacity="0" stroke="#FFFFFF" stroke-width="1.8" d="M-1216.667-1110h53.333v-11.93h-33.801
			l21.989-21.17c7.719-7.485,11.579-15.087,11.579-23.508c0-16.374-8.421-23.392-27.953-23.392c-8.07,0-15.789,1.053-22.924,3.392
			v12.398c7.018-2.339,13.684-3.509,20.585-3.509c10.526,0,14.97,3.742,14.97,12.982c0,5.38-3.158,10.761-9.356,16.726
			l-28.421,27.251V-1110z"/>
	</g>
</g>
<g>
	<g transform="matrix(1,0,0,1,1440,1200)">
		
			<linearGradient id="SVGID_4_" gradientUnits="userSpaceOnUse" x1="-2609" y1="-347.1931" x2="-2609" y2="-89.1821" gradientTransform="matrix(1 0 0 -1 1519 -1345.5)">
			<stop  offset="0" style="stop-color:#E4201B"/>
			<stop  offset="0.5" style="stop-color:#E94E13"/>
			<stop  offset="1" style="stop-color:#EF9704"/>
		</linearGradient>
		
			<path fill="#010202" fill-opacity="0" stroke="url(#SVGID_4_)" stroke-width="5" stroke-linecap="round" stroke-linejoin="round" d="
			M-1066.725-1190h-49.357v11.345h32.515l-19.064,22.69v8.772h3.625c14.737,0,20.702,3.626,20.702,12.631
			c0,9.123-5.614,12.866-19.415,12.866c-6.433,0-12.983-1.053-19.299-3.158v11.93c6.433,1.988,13.334,2.924,20.468,2.924
			c23.626,0,33.567-7.134,33.567-24.21c0-13.801-7.485-21.17-23.275-22.573l19.532-23.041V-1190z"/>
	</g>
	<g transform="matrix(1,0,0,1,1440,1200)">
		<path fill="#010202" fill-opacity="0" stroke="#FFFFFF" stroke-width="1.8" d="M-1066.725-1190h-49.357v11.345h32.515
			l-19.064,22.69v8.772h3.625c14.737,0,20.702,3.626,20.702,12.631c0,9.123-5.614,12.866-19.415,12.866
			c-6.433,0-12.983-1.053-19.299-3.158v11.93c6.433,1.988,13.334,2.924,20.468,2.924c23.626,0,33.567-7.134,33.567-24.21
			c0-13.801-7.485-21.17-23.275-22.573l19.532-23.041V-1190z"/>
	</g>
</g>
<g>
	<g transform="matrix(1,0,0,1,1440,1200)">
		
			<linearGradient id="SVGID_5_" gradientUnits="userSpaceOnUse" x1="-2509" y1="-350.52" x2="-2509" y2="-88.0888" gradientTransform="matrix(1 0 0 -1 1519 -1345.5)">
			<stop  offset="0" style="stop-color:#E4201B"/>
			<stop  offset="0.5" style="stop-color:#E94E13"/>
			<stop  offset="1" style="stop-color:#EF9704"/>
		</linearGradient>
		
			<path fill="#010202" fill-opacity="0" stroke="url(#SVGID_5_)" stroke-width="5" stroke-linecap="round" stroke-linejoin="round" d="
			M-1007.441-1138.214l24.881-35.119v35.119H-1007.441z M-982.56-1110h14.047v-16.666h10.238v-11.548h-10.238V-1190h-15.952
			l-37.261,52.381v10.953h39.166V-1110z"/>
	</g>
	<g transform="matrix(1,0,0,1,1440,1200)">
		<path fill="#010202" fill-opacity="0" stroke="#FFFFFF" stroke-width="1.8" d="M-1007.441-1138.214l24.881-35.119v35.119
			H-1007.441z M-982.56-1110h14.047v-16.666h10.238v-11.548h-10.238V-1190h-15.952l-37.261,52.381v10.953h39.166V-1110z"/>
	</g>
</g>
<g>
	<g transform="matrix(1,0,0,1,1440,1200)">
		
			<linearGradient id="SVGID_6_" gradientUnits="userSpaceOnUse" x1="-2409" y1="-347.1931" x2="-2409" y2="-89.1821" gradientTransform="matrix(1 0 0 -1 1519 -1345.5)">
			<stop  offset="0" style="stop-color:#E4201B"/>
			<stop  offset="0.5" style="stop-color:#E94E13"/>
			<stop  offset="1" style="stop-color:#EF9704"/>
		</linearGradient>
		
			<path fill="#010202" fill-opacity="0" stroke="url(#SVGID_6_)" stroke-width="5" stroke-linecap="round" stroke-linejoin="round" d="
			M-866.96-1190h-47.719v42.69c5.614-0.585,10.994-0.819,16.257-0.819c14.152,0,20,3.742,20,13.099
			c0,9.474-5.614,13.334-19.064,13.334c-6.55,0-13.099-1.053-19.298-3.158v11.93c6.433,1.988,13.333,2.924,20.467,2.924
			c23.391,0,33.1-7.369,33.1-24.678c0-17.076-8.655-24.327-29.24-24.327c-2.924,0-5.614,0.117-8.421,0.35v-20h33.918V-1190z"/>
	</g>
	<g transform="matrix(1,0,0,1,1440,1200)">
		<path fill="#010202" fill-opacity="0" stroke="#FFFFFF" stroke-width="1.8" d="M-866.96-1190h-47.719v42.69
			c5.614-0.585,10.994-0.819,16.257-0.819c14.152,0,20,3.742,20,13.099c0,9.474-5.614,13.334-19.064,13.334
			c-6.55,0-13.099-1.053-19.298-3.158v11.93c6.433,1.988,13.333,2.924,20.467,2.924c23.391,0,33.1-7.369,33.1-24.678
			c0-17.076-8.655-24.327-29.24-24.327c-2.924,0-5.614,0.117-8.421,0.35v-20h33.918V-1190z"/>
	</g>
</g>
<g>
	<g transform="matrix(1,0,0,1,1440,1200)">
		
			<linearGradient id="SVGID_7_" gradientUnits="userSpaceOnUse" x1="-2309" y1="-348.9111" x2="-2309" y2="-89.2035" gradientTransform="matrix(1 0 0 -1 1519 -1345.5)">
			<stop  offset="0" style="stop-color:#E4201B"/>
			<stop  offset="0.5" style="stop-color:#E94E13"/>
			<stop  offset="1" style="stop-color:#EF9704"/>
		</linearGradient>
		
			<path fill="#010202" fill-opacity="0" stroke="url(#SVGID_7_)" stroke-width="5" stroke-linecap="round" stroke-linejoin="round" d="
			M-804.373-1136.805c0-9.426,4.712-13.784,15.434-13.784c10.132,0,14.256,4.477,14.256,14.609c0,10.721-4.595,15.198-15.316,15.198
			C-799.661-1120.781-804.373-1125.966-804.373-1136.805z M-819.69-1146.23c0,26.391,8.837,37.23,30.044,37.23
			c20.736,0,29.336-8.129,29.336-27.216c0-18.261-7.893-25.919-26.861-25.919c-8.836,0-14.609,2.239-17.672,6.951
			c0.707-16.73,7.069-24.034,22.974-24.034c5.537,0,11.428,0.943,17.201,2.592v-11.9c-5.655-1.649-11.781-2.474-18.379-2.474
			C-809.085-1191-819.69-1177.805-819.69-1146.23z"/>
	</g>
	<g transform="matrix(1,0,0,1,1440,1200)">
		<path fill="#010202" fill-opacity="0" stroke="#FFFFFF" stroke-width="1.8" d="M-804.373-1136.805
			c0-9.426,4.712-13.784,15.434-13.784c10.132,0,14.256,4.477,14.256,14.609c0,10.721-4.595,15.198-15.316,15.198
			C-799.661-1120.781-804.373-1125.966-804.373-1136.805z M-819.69-1146.23c0,26.391,8.837,37.23,30.044,37.23
			c20.736,0,29.336-8.129,29.336-27.216c0-18.261-7.893-25.919-26.861-25.919c-8.836,0-14.609,2.239-17.672,6.951
			c0.707-16.73,7.069-24.034,22.974-24.034c5.537,0,11.428,0.943,17.201,2.592v-11.9c-5.655-1.649-11.781-2.474-18.379-2.474
			C-809.085-1191-819.69-1177.805-819.69-1146.23z"/>
	</g>
</g>
<g>
	<g transform="matrix(1,0,0,1,1440,1200)">
		
			<linearGradient id="SVGID_8_" gradientUnits="userSpaceOnUse" x1="-2209" y1="-350.52" x2="-2209" y2="-88.0888" gradientTransform="matrix(1 0 0 -1 1519 -1345.5)">
			<stop  offset="0" style="stop-color:#E4201B"/>
			<stop  offset="0.5" style="stop-color:#E94E13"/>
			<stop  offset="1" style="stop-color:#EF9704"/>
		</linearGradient>
		
			<path fill="#010202" fill-opacity="0" stroke="url(#SVGID_8_)" stroke-width="5" stroke-linecap="round" stroke-linejoin="round" d="
			M-662.083-1190h-55.833v12.143h40L-708.631-1110h15.357l31.191-69.643V-1190z"/>
	</g>
	<g transform="matrix(1,0,0,1,1440,1200)">
		<path fill="#010202" fill-opacity="0" stroke="#FFFFFF" stroke-width="1.8" d="M-662.083-1190h-55.833v12.143h40L-708.631-1110
			h15.357l31.191-69.643V-1190z"/>
	</g>
</g>
<g>
	<g transform="matrix(1,0,0,1,1440,1200)">
		
			<linearGradient id="SVGID_9_" gradientUnits="userSpaceOnUse" x1="-2109" y1="-348.9111" x2="-2109" y2="-89.2035" gradientTransform="matrix(1 0 0 -1 1519 -1345.5)">
			<stop  offset="0" style="stop-color:#E4201B"/>
			<stop  offset="0.5" style="stop-color:#E94E13"/>
			<stop  offset="1" style="stop-color:#EF9704"/>
		</linearGradient>
		
			<path fill="#010202" fill-opacity="0" stroke="url(#SVGID_9_)" stroke-width="5" stroke-linecap="round" stroke-linejoin="round" d="
			M-590-1145.169c11.075,1.531,15.198,5.065,15.198,13.077c0,8.247-4.477,11.664-15.198,11.664s-15.198-3.417-15.198-11.664
			C-605.198-1140.104-601.075-1143.638-590-1145.169z M-620.043-1131.503c0,15.787,8.954,22.503,30.043,22.503
			s30.043-6.716,30.043-22.503c0-10.957-4.831-16.847-16.023-19.439c9.661-2.474,14.138-8.247,14.138-18.497
			c0-15.198-8.365-21.561-28.158-21.561s-28.158,6.362-28.158,21.561c0,10.25,4.477,16.022,14.138,18.497
			C-615.213-1148.351-620.043-1142.46-620.043-1131.503z M-590-1156.715c-9.779-1.414-13.667-4.831-13.667-12.135
			c0-7.54,4.006-10.721,13.667-10.721c9.661,0,13.667,3.181,13.667,10.721C-576.333-1161.546-580.221-1158.129-590-1156.715z"/>
	</g>
	<g transform="matrix(1,0,0,1,1440,1200)">
		<path fill="#010202" fill-opacity="0" stroke="#FFFFFF" stroke-width="1.8" d="M-590-1145.169
			c11.075,1.531,15.198,5.065,15.198,13.077c0,8.247-4.477,11.664-15.198,11.664s-15.198-3.417-15.198-11.664
			C-605.198-1140.104-601.075-1143.638-590-1145.169z M-620.043-1131.503c0,15.787,8.954,22.503,30.043,22.503
			s30.043-6.716,30.043-22.503c0-10.957-4.831-16.847-16.023-19.439c9.661-2.474,14.138-8.247,14.138-18.497
			c0-15.198-8.365-21.561-28.158-21.561s-28.158,6.362-28.158,21.561c0,10.25,4.477,16.022,14.138,18.497
			C-615.213-1148.351-620.043-1142.46-620.043-1131.503z M-590-1156.715c-9.779-1.414-13.667-4.831-13.667-12.135
			c0-7.54,4.006-10.721,13.667-10.721c9.661,0,13.667,3.181,13.667,10.721C-576.333-1161.546-580.221-1158.129-590-1156.715z"/>
	</g>
</g>
<g>
	<g transform="matrix(1,0,0,1,1440,1200)">
		
			<linearGradient id="SVGID_10_" gradientUnits="userSpaceOnUse" x1="-2009" y1="-348.9111" x2="-2009" y2="-89.2035" gradientTransform="matrix(1 0 0 -1 1519 -1345.5)">
			<stop  offset="0" style="stop-color:#E4201B"/>
			<stop  offset="0.5" style="stop-color:#E94E13"/>
			<stop  offset="1" style="stop-color:#EF9704"/>
		</linearGradient>
		
			<path fill="#010202" fill-opacity="0" stroke="url(#SVGID_10_)" stroke-width="5" stroke-linecap="round" stroke-linejoin="round" d="
			M-475.626-1163.195c0,9.426-4.712,13.784-15.434,13.784c-10.132,0-14.256-4.477-14.256-14.609
			c0-10.721,4.595-15.198,15.317-15.198C-480.339-1179.218-475.626-1174.034-475.626-1163.195z M-460.31-1153.77
			c0-26.391-8.836-37.23-30.043-37.23c-20.736,0-29.336,8.129-29.336,27.216c0,18.261,7.894,25.919,26.862,25.919
			c8.836,0,14.609-2.239,17.672-6.951c-0.707,16.73-7.069,24.035-22.974,24.035c-5.537,0-11.428-0.943-17.201-2.593v11.9
			c5.655,1.649,11.781,2.474,18.379,2.474C-470.914-1109-460.31-1122.195-460.31-1153.77z"/>
	</g>
	<g transform="matrix(1,0,0,1,1440,1200)">
		<path fill="#010202" fill-opacity="0" stroke="#FFFFFF" stroke-width="1.8" d="M-475.626-1163.195
			c0,9.426-4.712,13.784-15.434,13.784c-10.132,0-14.256-4.477-14.256-14.609c0-10.721,4.595-15.198,15.317-15.198
			C-480.339-1179.218-475.626-1174.034-475.626-1163.195z M-460.31-1153.77c0-26.391-8.836-37.23-30.043-37.23
			c-20.736,0-29.336,8.129-29.336,27.216c0,18.261,7.894,25.919,26.862,25.919c8.836,0,14.609-2.239,17.672-6.951
			c-0.707,16.73-7.069,24.035-22.974,24.035c-5.537,0-11.428-0.943-17.201-2.593v11.9c5.655,1.649,11.781,2.474,18.379,2.474
			C-470.914-1109-460.31-1122.195-460.31-1153.77z"/>
	</g>
</g>
</svg>
