<svg enable-background="new 0 0 875 333" viewBox="0 0 875 333" xmlns="http://www.w3.org/2000/svg"><g fill="#fff"><g><path d="m509.8 309.3-7.3-82h-20.5l-18.7 48.7-18.7-48.7h-20.5l-7.3 82.2-.2 2.2h19.3l4-50.1h.5l17.3 49.6h11.5l17.3-49.6h.5l4 50.1h19.3z"/><path d="m576.8 246.2-7.6-18.8h-17.9l-33.1 82-1.1 2.5h19.6l6.7-16.7 16.7-41.7h.2l9.6 24.1 7 17.7h-24.1l-6.5 16.7h57.1z"/><path d="m649.6 263.1c-9.6-4-17.6-7.5-17.6-12.1s3.4-7.6 10-7.6c8.7 0 17.1 5.9 17.1 5.9l7.8-15.4s-10.9-7.9-26.1-7.9c-13.7 0-27.5 10-27.5 25.8 0 8.9 5.9 16.7 16 21.8 10 5 19 7.8 19 13.9 0 7.9-7.9 8.2-12.1 8.2-9.5 0-20.7-9.5-20.7-9.5l-9.6 16.2s12 11.2 31.7 11.2c16.5 0 31.9-7 31.9-27.2-.1-11.4-10.4-19.5-19.9-23.3z"/><path d="m752.5 266.3 27.7-39.1h-24l-15.6 23-15.6-23h-23l26.6 39.1-31.9 45.4h23.8l19.9-28.8 19.9 28.8h24.9z"/><path d="m824.1 227.3h-30.8v15.4h24.7c7.6 0 14.8 2.5 14.8 11.2 0 8.6-7.2 11.2-14.8 11.2h-24.7v46.7h19.3v-31.3h11.5c16.5 0 28.9-9.8 28.9-27.1-.2-17.6-12.5-26.1-28.9-26.1z"/><path d="m74.6 294c-19.3 0-27.7-13.5-27.7-24.7s8.4-24.7 27.7-24.7c9.8 0 16.5 5.3 16.5 5.3l8.2-16.3s-9.5-7.8-27.7-7.8c-23.8 0-45.6 19.6-45.6 43.7s21.8 43.4 45.6 43.4c18.2 0 27.7-7.8 27.7-7.8l-8.2-16.3c0 .1-6.7 5.2-16.5 5.2z"/><path d="m155.5 227.3v33.6h-27.1v-33.6h-19.3v84.2h19.1v-33.8h27.1v33.8h19.1v-84.2z"/><path d="m228.8 276.6c10.3-3.3 17.3-11.7 17.3-24.4 0-16.5-11.8-25.1-27.4-25.1h-30.2v15.3h21.5c7.3 0 15.9.5 15.9 11 0 10.4-8.7 11-15.9 11h-2.2v-.2h-19.3v46.8h19.1v-33.3l25.7 33.3h24.4z"/><path d="m264.1 227.3v84.2h19.3v-84.2z"/><path d="m333.4 262.9c-9.6-4-17.6-7.5-17.6-12.1 0-4.7 3.4-7.6 10-7.6 8.7 0 17.1 5.9 17.1 5.9l7.8-15.3s-10.7-7.9-26.1-7.9c-13.5 0-27.4 10-27.4 25.7 0 8.7 5.9 16.7 16 21.6 10 5 19 7.8 19 13.9 0 7.8-7.9 8.2-12.1 8.2-9.3 0-20.5-9.5-20.5-9.5l-9.6 16s12 11 31.6 11c16.3 0 31.7-7 31.7-27.1-.2-11-10.4-18.9-19.9-22.8z"/><path d="m355.8 227.3v16.8h20.1v67.4h19.1v-67.4h19.9v-16.8z"/></g><g><path d="m490.6 114h8.7v8.7h-8.7z"/><path d="m481.3 114h8.7v8.7h-8.7z"/><path d="m490.6 123.3h8.7v8.7h-8.7z"/><path d="m490.6 132.6h8.7v8.7h-8.7z"/><path d="m490.6 141.8h8.7v8.7h-8.7z"/><path d="m481.3 151.1h8.7v8.7h-8.7z"/><path d="m471.9 86.3h8.7v8.7h-8.7z"/><path d="m471.9 95.5h8.7v8.7h-8.7z"/><path d="m471.9 104.8h8.7v8.7h-8.7z"/><path d="m471.9 114h8.7v8.7h-8.7z"/><path d="m462.7 86.3h8.7v8.7h-8.7z"/><path d="m471.9 77h8.7v8.7h-8.7z"/><path d="m462.7 77h8.7v8.7h-8.7z"/><path d="m471.9 67.7h8.7v8.7h-8.7z"/><path d="m462.7 67.7h8.7v8.7h-8.7z"/><path d="m471.9 58.5h8.7v8.7h-8.7z"/><path d="m462.7 58.5h8.7v8.7h-8.7z"/><path d="m490.6 58.5h8.7v8.7h-8.7z"/><path d="m481.4 58.5h8.7v8.7h-8.7z"/><path d="m444 49.1h8.7v8.7h-8.7z"/><path d="m434.7 49.1h8.7v8.7h-8.7z"/><path d="m425.6 39.8h8.7v8.7h-8.7z"/><path d="m425.6 30.4h8.7v8.7h-8.7z"/><path d="m462.7 49.1h8.7v8.7h-8.7z"/><path d="m462.7 39.8h8.7v8.7h-8.7z"/><path d="m462.7 30.4h8.7v8.7h-8.7z"/><path d="m453.4 21.6h8.7v8.7h-8.7z"/><path d="m453.4 49.1h8.7v8.7h-8.7z"/><path d="m481.4 67.7h8.7v8.7h-8.7z"/><path d="m453.4 86.3h8.7v8.7h-8.7z"/><path d="m462.7 95.5h8.7v8.7h-8.7z"/><path d="m462.7 104.8h8.7v8.7h-8.7z"/><path d="m462.7 114h8.7v8.7h-8.7z"/><path d="m453.4 95.5h8.7v8.7h-8.7z"/><path d="m453.4 104.8h8.7v8.7h-8.7z"/><path d="m453.4 114h8.7v8.7h-8.7z"/><path d="m444.2 95.5h8.7v8.7h-8.7z"/><path d="m444.2 104.8h8.7v8.7h-8.7z"/><path d="m444.2 114h8.7v8.7h-8.7z"/><path d="m434.9 95.5h8.7v8.7h-8.7z"/><path d="m434.9 104.8h8.7v8.7h-8.7z"/><path d="m434.9 114h8.7v8.7h-8.7z"/><path d="m425.6 95.5h8.7v8.7h-8.7z"/><path d="m425.6 104.8h8.7v8.7h-8.7z"/><path d="m425.6 114h8.7v8.7h-8.7z"/><path d="m416.4 95.5h8.7v8.7h-8.7z"/><path d="m416.4 104.8h8.7v8.7h-8.7z"/><path d="m416.4 114h8.7v8.7h-8.7z"/><path d="m407.1 95.5h8.7v8.7h-8.7z"/><path d="m407.1 104.8h8.7v8.7h-8.7z"/><path d="m397.9 86.3h8.7v8.7h-8.7z"/><path d="m397.9 95.5h8.7v8.7h-8.7z"/><path d="m407.1 114h8.7v8.7h-8.7z"/><path d="m407.2 132.6h8.7v8.7h-8.7z"/><path d="m397.9 132.6h8.7v8.7h-8.7z"/><path d="m388.6 132.6h8.7v8.7h-8.7z"/><path d="m388.6 141.8h8.7v8.7h-8.7z"/><path d="m388.6 151.1h8.7v8.7h-8.7z"/><path d="m379.3 160.4h8.7v8.7h-8.7z"/><path d="m416.4 123.3h8.7v8.7h-8.7z"/><path d="m407.1 123.3h8.7v8.7h-8.7z"/></g></g></svg>