<svg width="124" height="18" viewBox="0 0 124 18" fill="none" xmlns="http://www.w3.org/2000/svg">
<path d="M10.6425 0.831421V13.7364H8.38536V11.6417C6.1525 15.2077 0 15.1703 0 8.91108V0.831421H2.25713V8.91108C2.25713 14.0232 8.38536 12.7265 8.38536 8.72405V0.831421H10.6425Z" fill="white"/>
<path d="M23.324 5.65702V13.7367H21.0669V5.65702C21.0669 0.544899 14.8659 1.84163 14.8659 5.84405V13.7367H12.6087V0.831677H14.8659V2.83912C17.2079 -0.639618 23.324 -0.564807 23.324 5.65702Z" fill="white"/>
<path d="M24.6582 9.70916H26.9153C26.9153 11.1805 28.2987 12.0034 29.9248 12.0034C31.6116 12.0034 32.9343 11.2054 32.9343 9.70916C32.9343 6.74164 24.8038 9.47226 24.8038 4.32273C24.8038 2.00357 27.0609 0.632019 29.6942 0.632019C32.3518 0.632019 34.5362 1.91629 34.5362 4.32273H32.4489C32.4489 3.0634 31.2233 2.41503 29.6821 2.41503C28.141 2.41503 26.9396 3.07587 26.9396 4.31026C26.9396 7.27779 35.2036 4.38507 35.2036 9.6967C35.2036 12.2278 32.9465 13.9485 29.9248 13.9485C26.9153 13.961 24.6582 12.4647 24.6582 9.70916Z" fill="white"/>
<path d="M42.3154 12.0537C44.6817 12.0537 45.9316 10.6821 46.4049 9.52254L48.1402 10.3704C47.4121 11.9664 45.5797 13.899 42.3154 13.899C38.7234 13.899 36.1629 11.1684 36.1629 7.21584C36.1629 3.35058 38.7234 0.607483 42.3154 0.607483C45.8831 0.607483 48.8441 3.36305 48.3465 8.23827H38.3472C38.6748 10.4327 40.0582 12.0537 42.3154 12.0537ZM46.3806 6.26823C46.053 3.87426 44.3662 2.47777 42.3154 2.47777C40.034 2.47777 38.6506 4.09869 38.3472 6.26823H46.3806Z" fill="white"/>
<path d="M55.7489 12.0537C58.1031 12.0537 59.3652 10.6821 59.8385 9.52254L61.5738 10.3704C60.8457 11.9664 59.0133 13.899 55.7489 13.899C52.1569 13.899 49.5964 11.1684 49.5964 7.21584C49.5964 3.35058 52.1569 0.607483 55.7489 0.607483C59.3166 0.607483 62.2776 3.36305 61.7801 8.23827H51.7807C52.1084 10.4327 53.4918 12.0537 55.7489 12.0537ZM59.8142 6.26823C59.4865 3.87426 57.7998 2.47777 55.7489 2.47777C53.4675 2.47777 52.0841 4.09869 51.7807 6.26823H59.8142Z" fill="white"/>
<path d="M74 5.65702V13.7367H71.7429V5.65702C71.7429 0.544899 65.5418 1.84163 65.5418 5.84405V13.7367H63.2847V0.831677H65.5418V2.83912C67.8718 -0.639618 74 -0.564807 74 5.65702Z" fill="white"/>
<path d="M86.5524 12.2666V14H79.6002V12.2666H86.5524ZM77.8667 0.851641H79.6002V12.2666H77.8667V0.851641ZM91.5762 2.58509V0.851641H95.0431V2.58509H91.5762ZM91.5762 4.31853H89.8428V2.58509H91.5762V4.31853ZM98.51 4.31853V14H96.7766V10.0352H89.8428V14H88.1093V4.31853H89.8428V8.30176H96.7766V4.31853H98.51ZM95.0431 4.31853V2.58509H96.7766V4.31853H95.0431ZM108.748 2.58509H110.482V6.56832H108.748V2.58509ZM108.748 6.56832V8.30176H101.796V12.2666H108.748V14H100.063V0.851641H108.748V2.58509H101.796V6.56832H108.748ZM108.748 8.30176H110.482V12.2666H108.748V8.30176ZM112.034 12.2666V10.5331H113.768V12.2666H112.034ZM120.72 12.2666V8.30176H122.453V12.2666H120.72ZM120.72 4.31853V2.58509H122.453V4.31853H120.72ZM112.034 6.56832V2.58509H113.768V6.56832H112.034ZM113.768 8.30176V6.56832H120.72V8.30176H113.768ZM113.768 2.58509V0.851641H120.72V2.58509H113.768ZM113.768 14V12.2666H120.72V14H113.768Z" fill="white"/>
</svg>
