<svg id="Layer_1" data-name="Layer 1" xmlns="http://www.w3.org/2000/svg" viewBox="0 0 1233.51 1136.26"><path d="M751,0C550.22,0,378.15,122.56,305.41,296.93h-.09L73,700.07H250.44l232.19-402.9h0C540,214.36,634.7,159.29,742.18,156.43L428.75,700.31l-106-.17-71.3-.07L0,1136.26c54.87-.23,115.68-.42,177.77-.55l.1-.17H354.42c64.65,0,125.64.13,177.25.36l106-183.83a524.68,524.68,0,0,0,109.82,13c1.17,0,2.33,0,3.49,0,.69,0,1.38,0,2.07,0h4.53V965c263.45-3.54,476-218.09,476-482.4C1233.51,216.05,1017.46,0,751,0ZM444.52,979.25H268L428.76,700.31H605.32ZM751,808.83H720.21l147-255-106-.17-70.43-.07L899.12,192c105.6,54.08,178.1,164,178.1,290.53C1077.22,662.47,930.85,808.83,751,808.83Z" transform="translate(0 0)"/></svg>