<svg id="Layer_1" data-name="Layer 1" xmlns="http://www.w3.org/2000/svg" viewBox="0 0 1115.61 87.34"><path d="M63.12,0H0V87.34H20.22V55.7h42.9c20.35,0,28-8.56,28-21.09V21.09C91.16,8.56,83.47,0,63.12,0Zm7.81,34.74c0,3.22-1.86,5.08-5.83,5.08H20.22V15.76H65c4,0,6,2.35,6,5.7Z" transform="translate(0 0)"/><path d="M177.87,0H112.15V87.34h20.22V48.51h31.48l19.48,38.83H205l-19.6-39.08C201.07,46.15,206,37.84,206,27.42V21.09C206,8.56,198.22,0,177.87,0Zm7.82,27.54c0,4.22-2.48,5.21-7.82,5.21h-45.5v-17h45.5c5.09,0,7.82,1.61,7.82,5.08Z" transform="translate(0 0)"/><path d="M311.17,0H255.05c-20.35,0-28,8.56-28,21.09V66.25c0,12.53,7.69,21.09,28,21.09h56.12c20.34,0,28-8.56,28-21.09V21.09C339.21,8.56,331.51,0,311.17,0ZM247.23,66.37V20.84c0-3.47,2.73-5.08,7.82-5.08h28.38L263,51.19h14.54L265.92,71.46H255.05C250,71.46,247.23,70,247.23,66.37Zm71.75,0c0,3.6-2.73,5.09-7.81,5.09H280.41l19.36-33.6H285.29L298,15.76h13.16c5.08,0,7.81,1.61,7.81,5.08Z" transform="translate(0 0)"/><polygon points="418.97 67.61 378.93 0 360.07 0 360.07 87.34 378.81 87.34 378.81 32.38 409.79 87.34 426.42 87.34 457.16 32.26 457.16 87.34 475.89 87.34 475.89 0 458.64 0 418.97 67.61"/><polygon points="496.37 87.34 578.22 87.34 578.22 71.46 516.59 71.46 516.59 49.13 574.37 49.13 574.37 33.25 516.59 33.25 516.59 15.76 578.22 15.76 578.22 0 496.37 0 496.37 87.34"/><polygon points="599.42 15.76 634.25 15.76 634.25 87.34 654.6 87.34 654.6 15.76 688.44 15.76 688.44 0 599.42 0 599.42 15.76"/><polygon points="775.58 33.25 729.49 33.25 729.49 0 709.27 0 709.27 87.34 729.49 87.34 729.49 49.13 775.58 49.13 775.58 87.34 795.93 87.34 795.93 0 775.58 0 775.58 33.25"/><path d="M986.71,66.37c0,3.6-2.73,5.09-7.82,5.09h-35.3c-5.09,0-7.81-1.49-7.81-5.09V0H915.55V66.25c0,12.53,7.69,21.09,28,21.09h35.3c15.63,0,23.79-5,26.73-13.08h0a18.5,18.5,0,0,0,.82-2.92h0a25.16,25.16,0,0,0,.49-5.08V0H986.71Z" transform="translate(0 0)"/><path d="M1087.33,32.63H1055.5c-5.71,0-8.06-1.61-8.06-5.34v-6.2c0-4,2.73-5.33,8.06-5.33h55.15V0H1055.5c-20.47,0-28.29,8.56-28.29,21.21v6c0,12.65,7.82,21.21,28.29,21.21h31.83c5.58,0,7.94,1.37,7.94,5.34V66.25c0,4.22-2.24,5.21-7.94,5.21h-64.74V87.34h64.74c20.47,0,28.28-8.68,28.28-21.34V53.84C1115.61,41.19,1107.8,32.63,1087.33,32.63Z" transform="translate(0 0)"/><polygon points="816.76 87.34 898.61 87.34 898.61 71.46 836.98 71.46 836.98 49.13 894.77 49.13 894.77 33.25 836.98 33.25 836.98 15.76 898.61 15.76 898.61 0 816.76 0 816.76 87.34"/></svg>