<svg class="svgLoader" width="523" height="522" viewBox="0 0 523 522" fill="none" xmlns="http://www.w3.org/2000/svg">
<path opacity="0.1" d="M262 1V1C262.681 17.5812 286.767 18.8435 289.177 2.42432V2.42432V2.42432C288.122 18.9859 311.943 22.7589 316.057 6.68163V6.68163V6.68163C313.276 23.0421 336.573 29.2845 342.344 13.7253V13.7253V13.7253C337.868 29.7054 360.385 38.3488 367.752 23.4782V23.4782V23.4782C361.63 38.9029 383.12 49.8526 392 35.8334V35.8334V35.8334C384.299 50.5337 404.527 63.6697 414.824 50.6556V50.6556V50.6556C405.629 64.4704 424.373 79.6488 435.974 67.7823V67.7823V67.7823C425.385 80.5603 442.44 97.6149 455.218 87.026V87.026V87.026C443.351 98.6272 458.53 117.371 472.344 108.176V108.176V108.176C459.33 118.473 472.466 138.701 487.167 131V131V131C473.147 139.88 484.097 161.37 499.522 155.248V155.248V155.248C484.651 162.615 493.295 185.132 509.275 180.656V180.656V180.656C493.716 186.427 499.958 209.724 516.318 206.943V206.943V206.943C500.241 211.057 504.014 234.878 520.576 233.823V233.823V233.823C504.157 236.233 505.419 260.319 522 261V261V261C505.419 261.681 504.157 285.767 520.576 288.177V288.177V288.177C504.014 287.122 500.241 310.943 516.318 315.057V315.057V315.057C499.958 312.276 493.716 335.573 509.275 341.344V341.344V341.344C493.295 336.868 484.651 359.385 499.522 366.752V366.752V366.752C484.097 360.63 473.147 382.12 487.167 391V391V391C472.466 383.299 459.33 403.527 472.344 413.824V413.824V413.824C458.53 404.629 443.351 423.373 455.218 434.974V434.974V434.974C442.44 424.385 425.385 441.44 435.974 454.218V454.218V454.218C424.373 442.351 405.629 457.53 414.824 471.344V471.344V471.344C404.527 458.33 384.299 471.466 392 486.167V486.167V486.167C383.12 472.147 361.63 483.097 367.752 498.522V498.522V498.522C360.385 483.651 337.868 492.295 342.344 508.275V508.275V508.275C336.573 492.716 313.276 498.958 316.057 515.318V515.318V515.318C311.943 499.241 288.122 503.014 289.177 519.576V519.576V519.576C286.767 503.157 262.681 504.419 262 521V521V521C261.319 504.419 237.233 503.157 234.823 519.576V519.576V519.576C235.878 503.014 212.057 499.241 207.943 515.318V515.318V515.318C210.724 498.958 187.427 492.716 181.656 508.275V508.275V508.275C186.132 492.295 163.615 483.651 156.248 498.522V498.522V498.522C162.37 483.097 140.88 472.147 132 486.167V486.167V486.167C139.701 471.466 119.473 458.33 109.176 471.344V471.344V471.344C118.371 457.53 99.6272 442.351 88.026 454.218V454.218V454.218C98.6149 441.44 81.5603 424.385 68.7823 434.974V434.974V434.974C80.6488 423.373 65.4704 404.629 51.6556 413.824V413.824V413.824C64.6697 403.527 51.5337 383.299 36.8334 391V391V391C50.8526 382.12 39.9029 360.63 24.4782 366.752V366.752V366.752C39.3488 359.385 30.7054 336.868 14.7253 341.344V341.344V341.344C30.2845 335.573 24.0421 312.276 7.68163 315.057V315.057V315.057C23.7589 310.943 19.9859 287.122 3.42432 288.177V288.177V288.177C19.8435 285.767 18.5812 261.681 2 261V261V261C18.5812 260.319 19.8435 236.233 3.42432 233.823V233.823V233.823C19.9859 234.878 23.7589 211.057 7.68163 206.943V206.943V206.943C24.0421 209.724 30.2845 186.427 14.7253 180.656V180.656V180.656C30.7054 185.132 39.3488 162.615 24.4782 155.248V155.248V155.248C39.9029 161.37 50.8526 139.88 36.8334 131V131V131C51.5337 138.701 64.6697 118.473 51.6556 108.176V108.176V108.176C65.4704 117.371 80.6488 98.6272 68.7823 87.026V87.026V87.026C81.5603 97.6149 98.6149 80.5603 88.026 67.7823V67.7823V67.7823C99.6272 79.6488 118.371 64.4704 109.176 50.6556V50.6556V50.6556C119.473 63.6697 139.701 50.5337 132 35.8334V35.8334V35.8334C140.88 49.8526 162.37 38.9029 156.248 23.4782V23.4782V23.4782C163.615 38.3488 186.132 29.7054 181.656 13.7253V13.7253V13.7253C187.427 29.2845 210.724 23.0421 207.943 6.68163V6.68163V6.68163C212.057 22.7589 235.878 18.9859 234.823 2.42432V2.42432V2.42432C237.233 18.8435 261.319 17.5812 262 1V1Z" stroke="#161616" stroke-width="3"/>
<path class="draw" d="M261 1V1C261.681 17.5812 285.767 18.8435 288.177 2.42432V2.42432V2.42432C287.122 18.9859 310.943 22.7589 315.057 6.68163V6.68163V6.68163C312.276 23.0421 335.573 29.2845 341.344 13.7253V13.7253V13.7253C336.868 29.7054 359.385 38.3488 366.752 23.4782V23.4782V23.4782C360.63 38.9029 382.12 49.8526 391 35.8334V35.8334V35.8334C383.299 50.5337 403.527 63.6697 413.824 50.6556V50.6556V50.6556C404.629 64.4704 423.373 79.6488 434.974 67.7823V67.7823V67.7823C424.385 80.5603 441.44 97.6149 454.218 87.026V87.026V87.026C442.351 98.6272 457.53 117.371 471.344 108.176V108.176V108.176C458.33 118.473 471.466 138.701 486.167 131V131V131C472.147 139.88 483.097 161.37 498.522 155.248V155.248V155.248C483.651 162.615 492.295 185.132 508.275 180.656V180.656V180.656C492.716 186.427 498.958 209.724 515.318 206.943V206.943V206.943C499.241 211.057 503.014 234.878 519.576 233.823V233.823V233.823C503.157 236.233 504.419 260.319 521 261V261V261C504.419 261.681 503.157 285.767 519.576 288.177V288.177V288.177C503.014 287.122 499.241 310.943 515.318 315.057V315.057V315.057C498.958 312.276 492.716 335.573 508.275 341.344V341.344V341.344C492.295 336.868 483.651 359.385 498.522 366.752V366.752V366.752C483.097 360.63 472.147 382.12 486.167 391V391V391C471.466 383.299 458.33 403.527 471.344 413.824V413.824V413.824C457.53 404.629 442.351 423.373 454.218 434.974V434.974V434.974C441.44 424.385 424.385 441.44 434.974 454.218V454.218V454.218C423.373 442.351 404.629 457.53 413.824 471.344V471.344V471.344C403.527 458.33 383.299 471.466 391 486.167V486.167V486.167C382.12 472.147 360.63 483.097 366.752 498.522V498.522V498.522C359.385 483.651 336.868 492.295 341.344 508.275V508.275V508.275C335.573 492.716 312.276 498.958 315.057 515.318V515.318V515.318C310.943 499.241 287.122 503.014 288.177 519.576V519.576V519.576C285.767 503.157 261.681 504.419 261 521V521V521C260.319 504.419 236.233 503.157 233.823 519.576V519.576V519.576C234.878 503.014 211.057 499.241 206.943 515.318V515.318V515.318C209.724 498.958 186.427 492.716 180.656 508.275V508.275V508.275C185.132 492.295 162.615 483.651 155.248 498.522V498.522V498.522C161.37 483.097 139.88 472.147 131 486.167V486.167V486.167C138.701 471.466 118.473 458.33 108.176 471.344V471.344V471.344C117.371 457.53 98.6272 442.351 87.026 454.218V454.218V454.218C97.6149 441.44 80.5603 424.385 67.7823 434.974V434.974V434.974C79.6488 423.373 64.4704 404.629 50.6556 413.824V413.824V413.824C63.6697 403.527 50.5337 383.299 35.8334 391V391V391C49.8526 382.12 38.9029 360.63 23.4782 366.752V366.752V366.752C38.3488 359.385 29.7054 336.868 13.7253 341.344V341.344V341.344C29.2845 335.573 23.0421 312.276 6.68163 315.057V315.057V315.057C22.7589 310.943 18.9859 287.122 2.42432 288.177V288.177V288.177C18.8435 285.767 17.5812 261.681 1 261V261V261C17.5812 260.319 18.8435 236.233 2.42432 233.823V233.823V233.823C18.9859 234.878 22.7589 211.057 6.68163 206.943V206.943V206.943C23.0421 209.724 29.2845 186.427 13.7253 180.656V180.656V180.656C29.7054 185.132 38.3488 162.615 23.4782 155.248V155.248V155.248C38.9029 161.37 49.8526 139.88 35.8334 131V131V131C50.5337 138.701 63.6697 118.473 50.6556 108.176V108.176V108.176C64.4704 117.371 79.6488 98.6272 67.7823 87.026V87.026V87.026C80.5603 97.6149 97.6149 80.5603 87.026 67.7823V67.7823V67.7823C98.6272 79.6488 117.371 64.4704 108.176 50.6556V50.6556V50.6556C118.473 63.6697 138.701 50.5337 131 35.8334V35.8334V35.8334C139.88 49.8526 161.37 38.9029 155.248 23.4782V23.4782V23.4782C162.615 38.3488 185.132 29.7054 180.656 13.7253V13.7253V13.7253C186.427 29.2845 209.724 23.0421 206.943 6.68163V6.68163V6.68163C211.057 22.7589 234.878 18.9859 233.823 2.42432V2.42432V2.42432C236.233 18.8435 260.319 17.5812 261 1V1Z" stroke="#E74833" stroke-width="3"/>
</svg>
