<svg width="262" height="261" fill="none" xmlns="http://www.w3.org/2000/svg"><path fill="#F0F0F0" stroke="#787878" stroke-dasharray="4 4" d="M.5.5h261v260H.5z"/><path d="M164.35 136v-9.8h1.97l1.2 4.7.29 1.18c.06-.32.15-.7.28-1.18l1.16-4.7h1.96v9.8h-1.29l.07-6.85c0-.45 0-.96.03-1.52l-1.51 6.03h-1.46l-1.54-6c.03.44.05.93.06 1.5l.05 6.84h-1.27ZM163.39 136h-1.58l-.81-2.83h-3.3l-.82 2.83h-1.48l3.03-9.8h1.9l3.06 9.8Zm-5.32-4.07h2.56l-.94-3.24c-.12-.4-.23-.82-.33-1.26-.06.25-.17.67-.34 1.26l-.95 3.24ZM150.67 136.22c-1.11 0-1.95-.3-2.52-.9a3.6 3.6 0 0 1-.9-2.39h1.51c.03.62.2 1.11.5 1.49.3.37.78.56 1.45.56.66 0 1.16-.2 1.5-.6.34-.4.51-.97.51-1.71v-6.47h1.49v6.6c0 .72-.16 1.34-.46 1.86-.3.5-.72.9-1.26 1.17-.54.26-1.14.4-1.82.4ZM138.2 136h-1.58l-.8-2.83h-3.3l-.83 2.83h-1.48l3.04-9.8h1.89l3.07 9.8Zm-5.31-4.07h2.56l-.94-3.24c-.12-.4-.23-.82-.34-1.26-.05.25-.16.67-.33 1.26l-.96 3.24ZM121.45 136h-1.89l-3.37-4.41-.61.71v3.7h-1.47v-9.8h1.47v4.2l.47-.62 3.04-3.58h1.78l-3.71 4.28 4.3 5.52ZM109.27 136.22c-.82 0-1.53-.21-2.11-.64a3.94 3.94 0 0 1-1.32-1.8 7.52 7.52 0 0 1-.45-2.72c0-1 .16-1.88.46-2.65.32-.77.77-1.38 1.36-1.8.6-.43 1.3-.65 2.13-.65 1 0 1.8.32 2.4.95.6.64.94 1.49 1.02 2.55h-1.6a3.03 3.03 0 0 0-.6-1.65c-.33-.4-.77-.59-1.32-.59a1.9 1.9 0 0 0-1.72 1.04c-.4.68-.59 1.61-.59 2.8 0 1.18.2 2.13.6 2.85.41.71.98 1.07 1.71 1.07.59 0 1.04-.2 1.36-.58.32-.38.53-.95.63-1.7h1.54a4.12 4.12 0 0 1-1.06 2.6c-.6.62-1.41.92-2.44.92ZM104.01 126.2v1.25h-2.65v7.29h2.65V136h-6.78v-1.26h2.65v-7.3h-2.65v-1.24h6.78ZM89.1 136v-9.8h3.42a4.2 4.2 0 0 1 2.48.67c.64.45.97 1.17.97 2.17s-.32 1.72-.96 2.17c-.63.45-1.46.67-2.49.67H90.6V136h-1.48Zm3.4-5.38c1.3 0 1.94-.52 1.94-1.58s-.64-1.6-1.93-1.6h-1.92v3.18h1.92Z" fill="#BCBCBC"/></svg>