<?xml version="1.0" encoding="utf-8"?>
<!-- Generator: Adobe Illustrator 27.7.0, SVG Export Plug-In . SVG Version: 6.00 Build 0)  -->
<svg version="1.1" id="Layer_1" xmlns="http://www.w3.org/2000/svg" xmlns:xlink="http://www.w3.org/1999/xlink" x="0px" y="0px"
	 viewBox="0 0 62 45" style="enable-background:new 0 0 62 45;" xml:space="preserve">
<path style="fill:none;" d="M55.1,15.8l-0.3-0.3L42.4,3.2c-1.6-1.6-4.1-1.6-5.7,0s-1.6,4.1,0,5.7l-2.1-2.1c-1.6-1.6-4.1-1.6-5.7,0
	s-1.6,4.1,0,5.7l-2.1-2.1c-1.6-1.6-4.1-1.6-5.7,0c-1.6,1.6-1.6,4.1,0,5.7L8.8,3.5C7.3,2,4.7,2,3.2,3.5s-1.6,4.1,0,5.7L17,23
	l-1.2-1.2l0.1,2c0.1,4.4,2,8.6,5.1,11.6c2,2,4.5,3.3,7.2,4.1l8.7,2.3l-0.7-0.7c6.1,3.3,13.8,2.4,19-2.7
	C61.4,32.2,61.4,22.1,55.1,15.8L55.1,15.8z"/>
<path style="fill:#B59879;" d="M55.1,15.8l-0.3-0.3L42.4,3.2c-1.6-1.6-4.1-1.6-5.7,0s-1.6,4.1,0,5.7l-2.1-2.1
	c-1.6-1.6-4.1-1.6-5.7,0s-1.6,4.1,0,5.7l-2.1-2.1c-1.6-1.6-4.1-1.6-5.7,0c-1.6,1.6-1.6,4.1,0,5.7L8.8,3.5C7.3,2,4.7,2,3.2,3.5
	s-1.6,4.1,0,5.7L17,23l-1.2-1.2l0.1,2c0.1,4.4,2,8.6,5.1,11.6c2,2,4.5,3.3,7.2,4.1l8.7,2.3l-0.7-0.7c6.1,3.3,13.8,2.4,19-2.7
	C61.4,32.2,61.4,22.1,55.1,15.8L55.1,15.8z"/>
<path style="fill:none;" d="M36.8,41.9l-8.7-2.3c-2.7-0.7-5.2-2.1-7.2-4.1c-3.2-3.1-5-7.2-5.1-11.6l-0.1-2"/>
<path style="fill:#B59879;" d="M36.8,41.9l-8.7-2.3c-2.7-0.7-5.2-2.1-7.2-4.1c-3.2-3.1-5-7.2-5.1-11.6l-0.1-2"/>
<path style="fill:none;stroke:#FFFFFF;stroke-width:3;stroke-linecap:round;stroke-linejoin:round;" d="M36.8,41.9l-8.7-2.3
	c-2.7-0.7-5.2-2.1-7.2-4.1c-3.2-3.1-5-7.2-5.1-11.6l-0.1-2"/>
<path style="fill:none;" d="M36.8,3.2c-1.6,1.6-1.6,4.1,0,5.7l-2.1-2.1c-1.6-1.6-4.1-1.6-5.7,0s-1.6,4.1,0,5.7l-2.1-2.1
	c-1.6-1.6-4.1-1.6-5.7,0c-1.6,1.6-1.6,4.1,0,5.7L8.8,3.5C7.3,2,4.7,2,3.2,3.5s-1.6,4.1,0,5.7l16.6,16.6l12.7,12.7
	c6.3,6.3,16.4,6.3,22.7,0s6.3-16.4,0-22.6l-0.3-0.3L42.4,3.2C40.9,1.6,38.3,1.6,36.8,3.2L36.8,3.2z"/>
<path style="fill:#B59879;" d="M36.8,3.2c-1.6,1.6-1.6,4.1,0,5.7l-2.1-2.1c-1.6-1.6-4.1-1.6-5.7,0s-1.6,4.1,0,5.7
	l-2.1-2.1c-1.6-1.6-4.1-1.6-5.7,0c-1.6,1.6-1.6,4.1,0,5.7L8.8,3.5C7.3,2,4.7,2,3.2,3.5s-1.6,4.1,0,5.7l16.6,16.6l12.7,12.7
	c6.3,6.3,16.4,6.3,22.7,0s6.3-16.4,0-22.6l-0.3-0.3L42.4,3.2C40.9,1.6,38.3,1.6,36.8,3.2L36.8,3.2z"/>
<path style="fill:none;stroke:#FFFFFF;stroke-width:3;stroke-linecap:round;stroke-linejoin:round;" d="M36.8,3.2
	c-1.6,1.6-1.6,4.1,0,5.7l-2.1-2.1c-1.6-1.6-4.1-1.6-5.7,0s-1.6,4.1,0,5.7l-2.1-2.1c-1.6-1.6-4.1-1.6-5.7,0c-1.6,1.6-1.6,4.1,0,5.7
	L8.8,3.5C7.3,2,4.7,2,3.2,3.5s-1.6,4.1,0,5.7l16.6,16.6l12.7,12.7c6.3,6.3,16.4,6.3,22.7,0s6.3-16.4,0-22.6l-0.3-0.3L42.4,3.2
	C40.9,1.6,38.3,1.6,36.8,3.2L36.8,3.2z"/>
</svg>
